<svg width="27" height="30" viewBox="0 0 27 30" fill="none" xmlns="http://www.w3.org/2000/svg">
<path d="M26.296 15.0144C26.296 6.72227 20.4094 0 13.148 0C5.88663 0 0 6.72227 0 15.0144C0 22.0556 4.24523 27.9641 9.97198 29.5869V19.6029H7.26086V15.0144H9.97198V13.0373C9.97198 7.92703 11.9973 5.55835 16.3908 5.55835C17.2239 5.55835 18.6612 5.74513 19.2492 5.93131V10.0903C18.9389 10.0531 18.3999 10.0345 17.7304 10.0345C15.5746 10.0345 14.7416 10.9671 14.7416 13.3917V15.0144H19.0362L18.2984 19.6029H14.7416V29.919C21.2519 29.0211 26.2966 22.691 26.2966 15.0144H26.296Z" fill="#0866FF"/>
</svg>
