<svg width="27" height="30" viewBox="0 0 27 30" fill="none" xmlns="http://www.w3.org/2000/svg">
<g clip-path="url(#clip0_545_180)">
<path d="M8.76564 29.9189C11.1849 29.9189 13.1485 27.6849 13.1485 24.9323V19.9458H8.76564C6.34634 19.9458 4.38281 22.1798 4.38281 24.9323C4.38281 27.6849 6.34634 29.9189 8.76564 29.9189Z" fill="#0ACF83"/>
<path d="M4.38281 14.9597C4.38281 12.2071 6.34634 9.97314 8.76564 9.97314H13.1485V19.9461H8.76564C6.34634 19.9462 4.38281 17.7122 4.38281 14.9597Z" fill="#A259FF"/>
<path d="M4.38281 4.98654C4.38281 2.23399 6.34634 0 8.76564 0H13.1485V9.97295H8.76564C6.34634 9.97295 4.38281 7.73908 4.38281 4.98654Z" fill="#F24E1E"/>
<path d="M13.1479 0H17.5308C19.9501 0 21.9136 2.23399 21.9136 4.98654C21.9136 7.73908 19.9501 9.97295 17.5308 9.97295H13.1479V0Z" fill="#FF7262"/>
<path d="M21.9136 14.9597C21.9136 17.7122 19.9501 19.9462 17.5308 19.9462C15.1115 19.9462 13.1479 17.7122 13.1479 14.9597C13.1479 12.2071 15.1115 9.97314 17.5308 9.97314C19.9501 9.97314 21.9136 12.2071 21.9136 14.9597Z" fill="#1ABCFE"/>
</g>
<defs>
<clipPath id="clip0_545_180">
<rect width="26.2966" height="29.919" fill="white"/>
</clipPath>
</defs>
</svg>
