<svg width="27" height="30" viewBox="0 0 27 30" fill="none" xmlns="http://www.w3.org/2000/svg">
<path d="M13.1483 0C9.57744 0 9.12967 0.0172356 7.72725 0.0900079C6.32777 0.162647 5.37199 0.415569 4.53563 0.785309C3.67102 1.16761 2.93777 1.67915 2.20683 2.51078C1.47585 3.34241 1.02624 4.17675 0.690268 5.16047C0.365215 6.11199 0.142994 7.19943 0.0790712 8.7917C0.0151096 10.3873 0 10.8967 0 14.9595C0 19.0222 0.0151096 19.5317 0.0790712 21.1273C0.142994 22.7195 0.365215 23.807 0.690268 24.7585C1.02628 25.7422 1.47589 26.5765 2.20683 27.4082C2.93781 28.2398 3.67102 28.7514 4.53563 29.1337C5.37199 29.5034 6.32777 29.7563 7.72725 29.829C9.12967 29.9017 9.57744 29.919 13.1483 29.919C16.7191 29.919 17.1669 29.9017 18.5693 29.829C19.9688 29.7563 20.9246 29.5034 21.7609 29.1337C22.6255 28.7514 23.3588 28.2398 24.0898 27.4082C24.8207 26.5765 25.2703 25.7422 25.6063 24.7585C25.9313 23.807 26.1536 22.7195 26.2175 21.1273C26.2814 19.5317 26.2966 19.0222 26.2966 14.9595C26.2966 10.8967 26.2814 10.3873 26.2175 8.7917C26.1536 7.19943 25.9313 6.11199 25.6063 5.16047C25.2703 4.17675 24.8207 3.34241 24.0898 2.51078C23.3588 1.67915 22.6255 1.16761 21.7609 0.785309C20.9246 0.415569 19.9688 0.162647 18.5693 0.0900079C17.1669 0.0172356 16.7191 0 13.1483 0ZM13.1483 2.69538C16.659 2.69538 17.0749 2.71066 18.4613 2.78263C19.7433 2.84912 20.4395 3.09283 20.9027 3.29769C21.5165 3.5691 21.9545 3.89323 22.4146 4.41671C22.8747 4.94019 23.1596 5.43856 23.3981 6.1368C23.5782 6.66393 23.7924 7.45605 23.8508 8.91457C23.9141 10.492 23.9275 10.9652 23.9275 14.9595C23.9275 18.9538 23.9141 19.427 23.8508 21.0044C23.7924 22.463 23.5782 23.2551 23.3981 23.7821C23.1596 24.4805 22.8747 24.9788 22.4146 25.5022C21.9545 26.0257 21.5165 26.3499 20.9028 26.6213C20.4395 26.8262 19.7432 27.0699 18.4613 27.1363C17.0751 27.2083 16.6593 27.2236 13.1483 27.2236C9.63729 27.2236 9.22154 27.2083 7.83525 27.1363C6.55328 27.0699 5.8571 26.8262 5.39383 26.6213C4.78005 26.3499 4.34206 26.0257 3.882 25.5022C3.4219 24.9788 3.13697 24.4804 2.89843 23.7822C2.71836 23.2551 2.50421 22.4629 2.44573 21.0044C2.38247 19.427 2.36904 18.9538 2.36904 14.9595C2.36904 10.9652 2.38247 10.492 2.44573 8.91457C2.50421 7.45601 2.71836 6.66393 2.89843 6.13684C3.13697 5.43851 3.4219 4.94019 3.88196 4.41676C4.34206 3.89323 4.78009 3.5691 5.39379 3.29769C5.8571 3.09283 6.55332 2.84912 7.83525 2.78263C9.22169 2.71066 9.63756 2.69538 13.1483 2.69538" fill="white"/>
<path d="M13.1483 19.9458C10.7277 19.9458 8.76553 17.7133 8.76553 14.9593C8.76553 12.2053 10.7277 9.97278 13.1483 9.97278C15.5689 9.97278 17.5311 12.2053 17.5311 14.9593C17.5311 17.7133 15.5689 19.9458 13.1483 19.9458ZM13.1483 7.2774C9.41935 7.2774 6.39648 10.7167 6.39648 14.9593C6.39648 19.2019 9.41935 22.6412 13.1483 22.6412C16.8772 22.6412 19.9001 19.2019 19.9001 14.9593C19.9001 10.7167 16.8772 7.2774 13.1483 7.2774ZM21.7447 6.97388C21.7447 7.96535 21.0383 8.76901 20.1669 8.76901C19.2955 8.76901 18.5891 7.96535 18.5891 6.97388C18.5891 5.98246 19.2955 5.17871 20.1669 5.17871C21.0383 5.17871 21.7447 5.98246 21.7447 6.97388Z" fill="white"/>
</svg>
