<svg width="27" height="30" viewBox="0 0 27 30" fill="none" xmlns="http://www.w3.org/2000/svg">
<path d="M0 29.919L1.85725 22.236C0.711194 19.9871 0.108991 17.4378 0.110092 14.8236C0.113395 6.65074 5.9868 0 13.2033 0C16.7054 0.00124662 19.9927 1.54581 22.4654 4.34823C24.9369 7.15064 26.2977 10.8756 26.2966 14.8373C26.2933 23.0114 20.4199 29.6622 13.2033 29.6622C11.0125 29.6609 8.85359 29.0389 6.9413 27.8571L0 29.919ZM7.26277 25.1731C9.10791 26.4135 10.8694 27.1565 13.1989 27.1577C19.1967 27.1577 24.0826 21.6302 24.0859 14.8348C24.0881 8.02577 19.2254 2.50571 13.2077 2.50322C7.20552 2.50322 2.32294 8.03075 2.32074 14.8249C2.31964 17.5986 3.03744 19.6755 4.24294 21.8483L3.14313 26.396L7.26277 25.1731ZM19.7989 18.3615C19.7175 18.2069 19.4995 18.1147 19.1714 17.9289C18.8444 17.7432 17.236 16.8469 16.9354 16.7235C16.636 16.6 16.418 16.5377 16.1989 16.9092C15.9809 17.2795 15.3534 18.1147 15.163 18.3615C14.9725 18.6084 14.7809 18.6395 14.454 18.4538C14.127 18.268 13.0723 17.8778 11.8228 16.615C10.8507 15.6327 10.1934 14.4197 10.003 14.0482C9.8125 13.678 9.98314 13.4773 10.1461 13.2928C10.2936 13.127 10.473 12.8602 10.6371 12.6433C10.8033 12.4288 10.8573 12.2743 10.9674 12.0262C11.0764 11.7794 11.0224 11.5624 10.9398 11.3767C10.8573 11.1922 10.2033 9.36838 9.9314 8.62664C9.66497 7.90484 9.39525 8.00208 9.19488 7.99086L8.56736 7.97839C8.34937 7.97839 7.99488 8.07065 7.69543 8.44214C7.39598 8.81363 6.55047 9.70871 6.55047 11.5325C6.55047 13.3563 7.72295 15.1178 7.88589 15.3646C8.04992 15.6115 10.1923 19.3538 13.4742 20.9582C14.2547 21.3397 14.8646 21.5678 15.3391 21.7386C16.123 22.0204 16.8364 21.9805 17.4 21.8857C18.0287 21.7798 19.3355 20.9894 19.6085 20.1243C19.8815 19.2579 19.8815 18.5161 19.7989 18.3615Z" fill="#25D366"/>
</svg>
